<?xml version="1.0" encoding="utf-8"?>
<!-- Generator: Adobe Illustrator 22.0.1, SVG Export Plug-In . SVG Version: 6.00 Build 0)  -->
<svg version="1.1" id="Calque_1" xmlns="http://www.w3.org/2000/svg" xmlns:xlink="http://www.w3.org/1999/xlink" x="0px" y="0px"
	 viewBox="0 0 100 125" style="enable-background:new 0 0 100 125;" xml:space="preserve">
<path d="M88.7,40.5l-6-3.9v0l-10-6.5v0l-5-3.2c0,0,0,0,0,0l-6-3.9v0l-9.9-6.5l-0.2-0.1c-0.1-0.1-0.2-0.1-0.4-0.2
	c-0.1-0.1-0.2-0.1-0.4-0.1c0,0,0,0,0,0c-0.1,0-0.3-0.1-0.4-0.1c-0.1,0-0.3,0-0.4,0s-0.3,0-0.4,0c-0.1,0-0.3,0-0.4,0.1
	c-0.1,0-0.3,0.1-0.4,0.2s-0.3,0.1-0.4,0.2l-0.2,0.1l-25,16.3h0l-0.8,0.5l-11,7.2c-1.4,0.9-1.8,2.8-0.9,4.1c0.6,0.9,1.5,1.4,2.5,1.4
	c0.6,0,1.1-0.2,1.6-0.5l6.7-4.4v39.9c0,1.7,1.3,3,3,3h51.3c1.7,0,3-1.3,3-3V41.2l6.7,4.4c0.5,0.3,1.1,0.5,1.6,0.5
	c1,0,1.9-0.5,2.5-1.4C90.4,43.3,90,41.4,88.7,40.5z M54.6,78.1h-9V57h9V78.1z M72.7,78.1L72.7,78.1h-12V54c0-1.7-1.3-3-3-3h-15
	c-1.7,0-3,1.3-3,3v24.1H27.4V37.3L50,22.5l22.7,14.8V78.1z"/>
</svg>
