<?xml version="1.0" encoding="utf-8"?>
<!-- Generator: Adobe Illustrator 22.0.1, SVG Export Plug-In . SVG Version: 6.00 Build 0)  -->
<svg version="1.1" id="Calque_1" xmlns="http://www.w3.org/2000/svg" xmlns:xlink="http://www.w3.org/1999/xlink" x="0px" y="0px"
	 viewBox="0 0 841.9 595.3" style="enable-background:new 0 0 841.9 595.3;" xml:space="preserve">
<style type="text/css">
	.st0{fill:#525C6F;}
	.st1{fill:#525C6F;stroke:#010202;stroke-width:0.25;stroke-miterlimit:10;}
</style>
<g transform="translate(0,-952.36218)">
	<path class="st0" d="M416,999.6c-26.8,0-48.9,21-48.9,48.3c0,6.6,1.6,15.1,3.8,21c13.5,28.2,27.1,56.4,40.7,84.5
		c0.8,1.7,2.6,2.8,4.4,2.8s3.7-1.2,4.4-2.8c13.4-28.2,27.4-56.3,40.7-84.5c2.2-5.9,3.8-14.3,3.8-21
		C465.1,1020.5,442.9,999.6,416,999.6z M416,1009.3c21.8,0,39.2,16.4,39.2,38.6c0,4.7-1.6,13.1-3.2,17.3c-11.9,25-24,49.9-36,74.8
		c-11.6-25.1-24.6-49.6-36-74.8c-1.6-4.2-3.2-12.6-3.2-17.3C376.9,1025.7,394.2,1009.3,416,1009.3z M416.1,1024
		c-13.5,0-24.5,11-24.5,24.5c0,13.5,11,24.5,24.5,24.5c13.5,0,24.5-11,24.5-24.5C440.6,1035,429.6,1024,416.1,1024z M416.1,1033.8
		c8.2,0,14.7,6.5,14.7,14.7c0,8.2-6.5,14.7-14.7,14.7c-8.2,0-14.7-6.5-14.7-14.7C401.4,1040.3,407.9,1033.8,416.1,1033.8z
		 M328,1097.5c-2.8,0-4,1.5-4.8,4.1l-14.7,97.9c-0.4,2.8,2,5.7,4.8,5.7h205.6c2.8,0,5.3-2.9,4.8-5.7l-14.7-97.9
		c-0.4-2.3-2.5-4.1-4.8-4.1h-45.7c-1.6,3.3-3.2,6.5-4.8,9.8H500l2.9,19.6h-58.7c-2.2,4.5-4.3,8.9-6.5,13.4l44.1,55.1h-73.1
		l-30.4-38.1l17.4-14.7c-1.4-3-2.9-6-4.4-9l-19.1,16.1l-34-42.5h40.5c-1.6-3.3-3.2-6.5-4.7-9.8H328z M331.1,1114.1l65,81.2H319
		L331.1,1114.1z M447.3,1136.6h57.1l3.7,24.5h-41.2L447.3,1136.6z M474.8,1170.9h34.8l3.7,24.5h-18.9L474.8,1170.9z"/>
</g>
<g>
	<path class="st1" d="M218.2,293.8h21.4v7.8h-30.4v-43.1h9V293.8z"/>
	<path class="st1" d="M271.1,295.4c0,3.8,0.8,4.6,1.9,5v1.3h-9.1c-0.5-1.5-0.6-2-0.8-3.8c-1.9,2-4.6,4.6-10.3,4.6
		c-4.8,0-9.7-2.7-9.7-9.3c0-6.2,4-9.4,9.3-10.2l7.6-1.1c1.3-0.2,2.9-0.7,2.9-2.5c0-3.5-3.4-3.7-5.5-3.7c-4.2,0-4.9,2.6-5.2,4.4h-8.1
		c1-9.8,7.7-11.2,14.3-11.2c4.5,0,12.7,1.4,12.7,9.2V295.4z M262.8,286.1c-0.8,0.7-2.2,1.2-5.7,1.7c-3.1,0.5-5.7,1.3-5.7,4.8
		c0,2.9,2.3,3.8,3.9,3.8c3.7,0,7.5-2.4,7.5-6.3V286.1z"/>
	<path class="st1" d="M303.4,273.9h0.1c1.3-2,3.8-5,9.2-5c7,0,13.3,5.4,13.3,16.4c0,8.8-4,17.2-13.4,17.2c-3.5,0-7.2-1.3-9.2-4.9
		h-0.1v4H295v-43.1h8.4V273.9z M310.2,276.1c-5.8,0-7.2,5.2-7.2,10.3c0,4.7,2.1,9.2,7.4,9.2c5.4,0,6.9-5.9,6.9-9.7
		C317.4,280.9,315.6,276.1,310.2,276.1z"/>
	<path class="st1" d="M346.4,302.5c-8.6,0-16.3-5.3-16.3-16.8s7.7-16.8,16.3-16.8s16.3,5.3,16.3,16.8S354.9,302.5,346.4,302.5z
		 M346.4,276c-6.5,0-7.7,5.6-7.7,9.7c0,4.1,1.2,9.7,7.7,9.7c6.5,0,7.7-5.6,7.7-9.7C354,281.6,352.8,276,346.4,276z"/>
	<path class="st1" d="M397.4,301.6H389v-19.4c0-2.3-0.1-6.3-5.5-6.3c-3.7,0-6.6,2.5-6.6,7.4v18.3h-8.4v-31.9h8v4.7h0.1
		c1.1-1.9,3.5-5.5,9.6-5.5c6.2,0,11.1,3.7,11.1,10.7V301.6z"/>
	<path class="st1" d="M434.1,301.6h-8.4v-19.4c0-2.3-0.1-6.3-5.5-6.3c-3.7,0-6.6,2.5-6.6,7.4v18.3h-8.4v-31.9h8v4.7h0.1
		c1.1-1.9,3.5-5.5,9.6-5.5c6.2,0,11.1,3.7,11.1,10.7V301.6z"/>
	<path class="st1" d="M469.3,292.3c-2.2,7.7-8.6,10.2-14,10.2c-9,0-15.9-4.3-15.9-17.5c0-3.8,1.3-16.1,15.3-16.1c6.3,0,15,3,15,17.6
		v1.5h-21.9c0.2,2.4,0.7,7.8,7.5,7.8c2.3,0,4.7-1.2,5.4-3.5H469.3z M461,282.5c-0.5-5.2-3.8-6.7-6.5-6.7c-4,0-6.1,2.5-6.5,6.7H461z"
		/>
	<path class="st1" d="M500.1,294.7h16.7v6.9h-27.6v-6.5l16.4-18.7h-15.2v-6.7h25.9v6.9L500.1,294.7z"/>
	<path class="st1" d="M536.4,302.5c-8.6,0-16.3-5.3-16.3-16.8s7.7-16.8,16.3-16.8c8.6,0,16.3,5.3,16.3,16.8S545,302.5,536.4,302.5z
		 M536.4,276c-6.5,0-7.7,5.6-7.7,9.7c0,4.1,1.2,9.7,7.7,9.7s7.7-5.6,7.7-9.7C544.1,281.6,542.9,276,536.4,276z"/>
	<path class="st1" d="M587.4,301.6H579v-19.4c0-2.3-0.1-6.3-5.5-6.3c-3.7,0-6.6,2.5-6.6,7.4v18.3h-8.4v-31.9h8v4.7h0.1
		c1.1-1.9,3.5-5.5,9.6-5.5c6.2,0,11.1,3.7,11.1,10.7V301.6z"/>
	<path class="st1" d="M622.7,292.3c-2.2,7.7-8.6,10.2-14,10.2c-9,0-15.9-4.3-15.9-17.5c0-3.8,1.3-16.1,15.3-16.1c6.3,0,15,3,15,17.6
		v1.5h-21.9c0.2,2.4,0.7,7.8,7.5,7.8c2.3,0,4.7-1.2,5.4-3.5H622.7z M614.4,282.5c-0.5-5.2-3.8-6.7-6.5-6.7c-4,0-6.1,2.5-6.5,6.7
		H614.4z"/>
</g>
</svg>
